<?xml version="1.0" encoding="UTF-8"?>
<!DOCTYPE svg PUBLIC "-//W3C//DTD SVG 1.1//EN" "http://www.w3.org/Graphics/SVG/1.1/DTD/svg11.dtd">
<svg xmlns="http://www.w3.org/2000/svg" style="background-color: rgb(255, 255, 255);" xmlns:xlink="http://www.w3.org/1999/xlink" version="1.1" width="1600px" height="1600px" viewBox="0 0 1600 1600"><defs/><g><path d="M 40 10 L 40 150" fill="none" stroke="#CC0000" stroke-width="60" stroke-miterlimit="10" pointer-events="stroke"/><path d="M 10 120 L 150 120" fill="none" stroke="#CC0000" stroke-width="60" stroke-miterlimit="10" pointer-events="stroke"/><path d="M 90 120 L 230 120" fill="none" stroke="#CC0000" stroke-width="60" stroke-miterlimit="10" pointer-events="stroke"/><path d="M 200 90 L 200 230" fill="none" stroke="#CC0000" stroke-width="60" stroke-miterlimit="10" pointer-events="stroke"/><path d="M 10 200 L 150 200" fill="none" stroke="#006600" stroke-width="60" stroke-miterlimit="10" pointer-events="stroke"/><path d="M 40 170 L 40 310" fill="none" stroke="#006600" stroke-width="60" stroke-miterlimit="10" pointer-events="stroke"/><path d="M 40 250 L 40 390" fill="none" stroke="#006600" stroke-width="60" stroke-miterlimit="10" pointer-events="stroke"/><path d="M 10 360 L 150 360" fill="none" stroke="#006600" stroke-width="60" stroke-miterlimit="10" pointer-events="stroke"/><path d="M 10 440 L 150 440" fill="none" stroke="#CC0000" stroke-width="60" stroke-miterlimit="10" pointer-events="stroke"/><path d="M 40 410 L 40 550" fill="none" stroke="#CC0000" stroke-width="60" stroke-miterlimit="10" pointer-events="stroke"/><path d="M 90 440 L 230 440" fill="none" stroke="#CC0000" stroke-width="60" stroke-miterlimit="10" pointer-events="stroke"/><path d="M 200 330 L 200 470" fill="none" stroke="#CC0000" stroke-width="60" stroke-miterlimit="10" pointer-events="stroke"/><path d="M 40 570 L 40 710" fill="none" stroke="#66DD99" stroke-width="60" stroke-miterlimit="10" pointer-events="stroke"/><path d="M 10 680 L 150 680" fill="none" stroke="#66DD99" stroke-width="60" stroke-miterlimit="10" pointer-events="stroke"/><path d="M 90 680 L 230 680" fill="none" stroke="#66DD99" stroke-width="60" stroke-miterlimit="10" pointer-events="stroke"/><path d="M 120 650 L 120 790" fill="none" stroke="#66DD99" stroke-width="60" stroke-miterlimit="10" pointer-events="stroke"/><path d="M 40 730 L 40 870" fill="none" stroke="#4D4D4D" stroke-width="60" stroke-miterlimit="10" pointer-events="stroke"/><path d="M 40 810 L 40 950" fill="none" stroke="#4D4D4D" stroke-width="60" stroke-miterlimit="10" pointer-events="stroke"/><path d="M 40 890 L 40 1030" fill="none" stroke="#4D4D4D" stroke-width="60" stroke-miterlimit="10" pointer-events="stroke"/><path d="M 40 970 L 40 1110" fill="none" stroke="#4D4D4D" stroke-width="60" stroke-miterlimit="10" pointer-events="stroke"/><path d="M 40 1130 L 40 1270" fill="none" stroke="#4D4D4D" stroke-width="60" stroke-miterlimit="10" pointer-events="stroke"/><path d="M 40 1210 L 40 1350" fill="none" stroke="#4D4D4D" stroke-width="60" stroke-miterlimit="10" pointer-events="stroke"/><path d="M 40 1290 L 40 1430" fill="none" stroke="#4D4D4D" stroke-width="60" stroke-miterlimit="10" pointer-events="stroke"/><path d="M 40 1370 L 40 1510" fill="none" stroke="#4D4D4D" stroke-width="60" stroke-miterlimit="10" pointer-events="stroke"/><path d="M 10 1560 L 150 1560" fill="none" stroke="#CC0000" stroke-width="60" stroke-miterlimit="10" pointer-events="stroke"/><path d="M 120 1450 L 120 1590" fill="none" stroke="#CC0000" stroke-width="60" stroke-miterlimit="10" pointer-events="stroke"/><path d="M 120 1370 L 120 1510" fill="none" stroke="#CC0000" stroke-width="60" stroke-miterlimit="10" pointer-events="stroke"/><path d="M 90 1400 L 230 1400" fill="none" stroke="#CC0000" stroke-width="60" stroke-miterlimit="10" pointer-events="stroke"/><path d="M 90 40 L 230 40" fill="none" stroke="#4D4D4D" stroke-width="60" stroke-miterlimit="10" pointer-events="stroke"/><path d="M 170 40 L 310 40" fill="none" stroke="#4D4D4D" stroke-width="60" stroke-miterlimit="10" pointer-events="stroke"/><path d="M 250 40 L 390 40" fill="none" stroke="#4D4D4D" stroke-width="60" stroke-miterlimit="10" pointer-events="stroke"/><path d="M 330 40 L 470 40" fill="none" stroke="#4D4D4D" stroke-width="60" stroke-miterlimit="10" pointer-events="stroke"/><path d="M 90 280 L 230 280" fill="none" stroke="#663300" stroke-width="60" stroke-miterlimit="10" pointer-events="stroke"/><path d="M 170 280 L 310 280" fill="none" stroke="#663300" stroke-width="60" stroke-miterlimit="10" pointer-events="stroke"/><path d="M 280 170 L 280 310" fill="none" stroke="#663300" stroke-width="60" stroke-miterlimit="10" pointer-events="stroke"/><path d="M 280 250 L 280 390" fill="none" stroke="#663300" stroke-width="60" stroke-miterlimit="10" pointer-events="stroke"/><path d="M 120 490 L 120 630" fill="none" stroke="#000066" stroke-width="60" stroke-miterlimit="10" pointer-events="stroke"/><path d="M 90 600 L 230 600" fill="none" stroke="#000066" stroke-width="60" stroke-miterlimit="10" pointer-events="stroke"/><path d="M 170 600 L 310 600" fill="none" stroke="#000066" stroke-width="60" stroke-miterlimit="10" pointer-events="stroke"/><path d="M 250 600 L 390 600" fill="none" stroke="#000066" stroke-width="60" stroke-miterlimit="10" pointer-events="stroke"/><path d="M 120 810 L 120 950" fill="none" stroke="#CC0000" stroke-width="60" stroke-miterlimit="10" pointer-events="stroke"/><path d="M 90 920 L 230 920" fill="none" stroke="#CC0000" stroke-width="60" stroke-miterlimit="10" pointer-events="stroke"/><path d="M 170 920 L 310 920" fill="none" stroke="#CC0000" stroke-width="60" stroke-miterlimit="10" pointer-events="stroke"/><path d="M 280 890 L 280 1030" fill="none" stroke="#CC0000" stroke-width="60" stroke-miterlimit="10" pointer-events="stroke"/><path d="M 90 1000 L 230 1000" fill="none" stroke="#006600" stroke-width="60" stroke-miterlimit="10" pointer-events="stroke"/><path d="M 120 970 L 120 1110" fill="none" stroke="#006600" stroke-width="60" stroke-miterlimit="10" pointer-events="stroke"/><path d="M 120 1050 L 120 1190" fill="none" stroke="#006600" stroke-width="60" stroke-miterlimit="10" pointer-events="stroke"/><path d="M 90 1160 L 230 1160" fill="none" stroke="#006600" stroke-width="60" stroke-miterlimit="10" pointer-events="stroke"/><path d="M 90 1240 L 230 1240" fill="none" stroke="#CC0000" stroke-width="60" stroke-miterlimit="10" pointer-events="stroke"/><path d="M 120 1210 L 120 1350" fill="none" stroke="#CC0000" stroke-width="60" stroke-miterlimit="10" pointer-events="stroke"/><path d="M 170 1240 L 310 1240" fill="none" stroke="#CC0000" stroke-width="60" stroke-miterlimit="10" pointer-events="stroke"/><path d="M 280 1130 L 280 1270" fill="none" stroke="#CC0000" stroke-width="60" stroke-miterlimit="10" pointer-events="stroke"/><path d="M 170 520 L 310 520" fill="none" stroke="#7F00FF" stroke-width="60" stroke-miterlimit="10" pointer-events="stroke"/><path d="M 280 410 L 280 550" fill="none" stroke="#7F00FF" stroke-width="60" stroke-miterlimit="10" pointer-events="stroke"/><path d="M 250 440 L 390 440" fill="none" stroke="#7F00FF" stroke-width="60" stroke-miterlimit="10" pointer-events="stroke"/><path d="M 360 330 L 360 470" fill="none" stroke="#7F00FF" stroke-width="60" stroke-miterlimit="10" pointer-events="stroke"/><path d="M 170 760 L 310 760" fill="none" stroke="#7F00FF" stroke-width="60" stroke-miterlimit="10" pointer-events="stroke"/><path d="M 200 730 L 200 870" fill="none" stroke="#7F00FF" stroke-width="60" stroke-miterlimit="10" pointer-events="stroke"/><path d="M 280 650 L 280 790" fill="none" stroke="#7F00FF" stroke-width="60" stroke-miterlimit="10" pointer-events="stroke"/><path d="M 250 680 L 390 680" fill="none" stroke="#7F00FF" stroke-width="60" stroke-miterlimit="10" pointer-events="stroke"/><path d="M 170 1080 L 310 1080" fill="none" stroke="#663300" stroke-width="60" stroke-miterlimit="10" pointer-events="stroke"/><path d="M 250 1080 L 390 1080" fill="none" stroke="#663300" stroke-width="60" stroke-miterlimit="10" pointer-events="stroke"/><path d="M 360 970 L 360 1110" fill="none" stroke="#663300" stroke-width="60" stroke-miterlimit="10" pointer-events="stroke"/><path d="M 360 1050 L 360 1190" fill="none" stroke="#663300" stroke-width="60" stroke-miterlimit="10" pointer-events="stroke"/><path d="M 170 1320 L 310 1320" fill="none" stroke="#663300" stroke-width="60" stroke-miterlimit="10" pointer-events="stroke"/><path d="M 250 1320 L 390 1320" fill="none" stroke="#663300" stroke-width="60" stroke-miterlimit="10" pointer-events="stroke"/><path d="M 280 1290 L 280 1430" fill="none" stroke="#663300" stroke-width="60" stroke-miterlimit="10" pointer-events="stroke"/><path d="M 280 1370 L 280 1510" fill="none" stroke="#663300" stroke-width="60" stroke-miterlimit="10" pointer-events="stroke"/><path d="M 200 1450 L 200 1590" fill="none" stroke="#006600" stroke-width="60" stroke-miterlimit="10" pointer-events="stroke"/><path d="M 170 1560 L 310 1560" fill="none" stroke="#006600" stroke-width="60" stroke-miterlimit="10" pointer-events="stroke"/><path d="M 250 1560 L 390 1560" fill="none" stroke="#006600" stroke-width="60" stroke-miterlimit="10" pointer-events="stroke"/><path d="M 360 1450 L 360 1590" fill="none" stroke="#006600" stroke-width="60" stroke-miterlimit="10" pointer-events="stroke"/><path d="M 250 120 L 390 120" fill="none" stroke="#CC0000" stroke-width="60" stroke-miterlimit="10" pointer-events="stroke"/><path d="M 360 90 L 360 230" fill="none" stroke="#CC0000" stroke-width="60" stroke-miterlimit="10" pointer-events="stroke"/><path d="M 360 170 L 360 310" fill="none" stroke="#CC0000" stroke-width="60" stroke-miterlimit="10" pointer-events="stroke"/><path d="M 330 280 L 470 280" fill="none" stroke="#CC0000" stroke-width="60" stroke-miterlimit="10" pointer-events="stroke"/><path d="M 250 840 L 390 840" fill="none" stroke="#7F00FF" stroke-width="60" stroke-miterlimit="10" pointer-events="stroke"/><path d="M 360 810 L 360 950" fill="none" stroke="#7F00FF" stroke-width="60" stroke-miterlimit="10" pointer-events="stroke"/><path d="M 330 920 L 470 920" fill="none" stroke="#7F00FF" stroke-width="60" stroke-miterlimit="10" pointer-events="stroke"/><path d="M 440 890 L 440 1030" fill="none" stroke="#7F00FF" stroke-width="60" stroke-miterlimit="10" pointer-events="stroke"/><path d="M 330 520 L 470 520" fill="none" stroke="#FF9933" stroke-width="60" stroke-miterlimit="10" pointer-events="stroke"/><path d="M 440 410 L 440 550" fill="none" stroke="#FF9933" stroke-width="60" stroke-miterlimit="10" pointer-events="stroke"/><path d="M 440 490 L 440 630" fill="none" stroke="#FF9933" stroke-width="60" stroke-miterlimit="10" pointer-events="stroke"/><path d="M 440 570 L 440 710" fill="none" stroke="#FF9933" stroke-width="60" stroke-miterlimit="10" pointer-events="stroke"/><path d="M 330 760 L 470 760" fill="none" stroke="#66DD99" stroke-width="60" stroke-miterlimit="10" pointer-events="stroke"/><path d="M 410 760 L 550 760" fill="none" stroke="#66DD99" stroke-width="60" stroke-miterlimit="10" pointer-events="stroke"/><path d="M 440 730 L 440 870" fill="none" stroke="#66DD99" stroke-width="60" stroke-miterlimit="10" pointer-events="stroke"/><path d="M 520 650 L 520 790" fill="none" stroke="#66DD99" stroke-width="60" stroke-miterlimit="10" pointer-events="stroke"/><path d="M 330 1240 L 470 1240" fill="none" stroke="#7F00FF" stroke-width="60" stroke-miterlimit="10" pointer-events="stroke"/><path d="M 440 1210 L 440 1350" fill="none" stroke="#7F00FF" stroke-width="60" stroke-miterlimit="10" pointer-events="stroke"/><path d="M 410 1320 L 550 1320" fill="none" stroke="#7F00FF" stroke-width="60" stroke-miterlimit="10" pointer-events="stroke"/><path d="M 520 1290 L 520 1430" fill="none" stroke="#7F00FF" stroke-width="60" stroke-miterlimit="10" pointer-events="stroke"/><path d="M 330 1400 L 470 1400" fill="none" stroke="#CC0000" stroke-width="60" stroke-miterlimit="10" pointer-events="stroke"/><path d="M 440 1370 L 440 1510" fill="none" stroke="#CC0000" stroke-width="60" stroke-miterlimit="10" pointer-events="stroke"/><path d="M 440 1450 L 440 1590" fill="none" stroke="#CC0000" stroke-width="60" stroke-miterlimit="10" pointer-events="stroke"/><path d="M 410 1560 L 550 1560" fill="none" stroke="#CC0000" stroke-width="60" stroke-miterlimit="10" pointer-events="stroke"/><path d="M 410 120 L 550 120" fill="none" stroke="#006600" stroke-width="60" stroke-miterlimit="10" pointer-events="stroke"/><path d="M 440 90 L 440 230" fill="none" stroke="#006600" stroke-width="60" stroke-miterlimit="10" pointer-events="stroke"/><path d="M 490 120 L 630 120" fill="none" stroke="#006600" stroke-width="60" stroke-miterlimit="10" pointer-events="stroke"/><path d="M 600 90 L 600 230" fill="none" stroke="#006600" stroke-width="60" stroke-miterlimit="10" pointer-events="stroke"/><path d="M 410 360 L 550 360" fill="none" stroke="#663300" stroke-width="60" stroke-miterlimit="10" pointer-events="stroke"/><path d="M 490 360 L 630 360" fill="none" stroke="#663300" stroke-width="60" stroke-miterlimit="10" pointer-events="stroke"/><path d="M 520 250 L 520 390" fill="none" stroke="#663300" stroke-width="60" stroke-miterlimit="10" pointer-events="stroke"/><path d="M 520 170 L 520 310" fill="none" stroke="#663300" stroke-width="60" stroke-miterlimit="10" pointer-events="stroke"/><path d="M 410 1080 L 550 1080" fill="none" stroke="#000066" stroke-width="60" stroke-miterlimit="10" pointer-events="stroke"/><path d="M 520 970 L 520 1110" fill="none" stroke="#000066" stroke-width="60" stroke-miterlimit="10" pointer-events="stroke"/><path d="M 520 890 L 520 1030" fill="none" stroke="#000066" stroke-width="60" stroke-miterlimit="10" pointer-events="stroke"/><path d="M 520 810 L 520 950" fill="none" stroke="#000066" stroke-width="60" stroke-miterlimit="10" pointer-events="stroke"/><path d="M 410 1160 L 550 1160" fill="none" stroke="#FF9933" stroke-width="60" stroke-miterlimit="10" pointer-events="stroke"/><path d="M 490 1160 L 630 1160" fill="none" stroke="#FF9933" stroke-width="60" stroke-miterlimit="10" pointer-events="stroke"/><path d="M 520 1130 L 520 1270" fill="none" stroke="#FF9933" stroke-width="60" stroke-miterlimit="10" pointer-events="stroke"/><path d="M 570 1160 L 710 1160" fill="none" stroke="#FF9933" stroke-width="60" stroke-miterlimit="10" pointer-events="stroke"/><path d="M 490 40 L 630 40" fill="none" stroke="#4D4D4D" stroke-width="60" stroke-miterlimit="10" pointer-events="stroke"/><path d="M 570 40 L 710 40" fill="none" stroke="#4D4D4D" stroke-width="60" stroke-miterlimit="10" pointer-events="stroke"/><path d="M 650 40 L 790 40" fill="none" stroke="#4D4D4D" stroke-width="60" stroke-miterlimit="10" pointer-events="stroke"/><path d="M 730 40 L 870 40" fill="none" stroke="#4D4D4D" stroke-width="60" stroke-miterlimit="10" pointer-events="stroke"/><path d="M 520 410 L 520 550" fill="none" stroke="#000066" stroke-width="60" stroke-miterlimit="10" pointer-events="stroke"/><path d="M 490 520 L 630 520" fill="none" stroke="#000066" stroke-width="60" stroke-miterlimit="10" pointer-events="stroke"/><path d="M 570 520 L 710 520" fill="none" stroke="#000066" stroke-width="60" stroke-miterlimit="10" pointer-events="stroke"/><path d="M 650 520 L 790 520" fill="none" stroke="#000066" stroke-width="60" stroke-miterlimit="10" pointer-events="stroke"/><path d="M 490 600 L 630 600" fill="none" stroke="#000066" stroke-width="60" stroke-miterlimit="10" pointer-events="stroke"/><path d="M 600 570 L 600 710" fill="none" stroke="#000066" stroke-width="60" stroke-miterlimit="10" pointer-events="stroke"/><path d="M 600 650 L 600 790" fill="none" stroke="#000066" stroke-width="60" stroke-miterlimit="10" pointer-events="stroke"/><path d="M 600 730 L 600 870" fill="none" stroke="#000066" stroke-width="60" stroke-miterlimit="10" pointer-events="stroke"/><path d="M 490 1480 L 630 1480" fill="none" stroke="#000066" stroke-width="60" stroke-miterlimit="10" pointer-events="stroke"/><path d="M 600 1370 L 600 1510" fill="none" stroke="#000066" stroke-width="60" stroke-miterlimit="10" pointer-events="stroke"/><path d="M 600 1290 L 600 1430" fill="none" stroke="#000066" stroke-width="60" stroke-miterlimit="10" pointer-events="stroke"/><path d="M 600 1210 L 600 1350" fill="none" stroke="#000066" stroke-width="60" stroke-miterlimit="10" pointer-events="stroke"/><path d="M 570 280 L 710 280" fill="none" stroke="#CC0000" stroke-width="60" stroke-miterlimit="10" pointer-events="stroke"/><path d="M 680 170 L 680 310" fill="none" stroke="#CC0000" stroke-width="60" stroke-miterlimit="10" pointer-events="stroke"/><path d="M 680 90 L 680 230" fill="none" stroke="#CC0000" stroke-width="60" stroke-miterlimit="10" pointer-events="stroke"/><path d="M 650 120 L 790 120" fill="none" stroke="#CC0000" stroke-width="60" stroke-miterlimit="10" pointer-events="stroke"/><path d="M 570 440 L 710 440" fill="none" stroke="#7F00FF" stroke-width="60" stroke-miterlimit="10" pointer-events="stroke"/><path d="M 680 330 L 680 470" fill="none" stroke="#7F00FF" stroke-width="60" stroke-miterlimit="10" pointer-events="stroke"/><path d="M 650 360 L 790 360" fill="none" stroke="#7F00FF" stroke-width="60" stroke-miterlimit="10" pointer-events="stroke"/><path d="M 760 250 L 760 390" fill="none" stroke="#7F00FF" stroke-width="60" stroke-miterlimit="10" pointer-events="stroke"/><path d="M 570 920 L 710 920" fill="none" stroke="#CC0000" stroke-width="60" stroke-miterlimit="10" pointer-events="stroke"/><path d="M 680 810 L 680 950" fill="none" stroke="#CC0000" stroke-width="60" stroke-miterlimit="10" pointer-events="stroke"/><path d="M 680 730 L 680 870" fill="none" stroke="#CC0000" stroke-width="60" stroke-miterlimit="10" pointer-events="stroke"/><path d="M 650 760 L 790 760" fill="none" stroke="#CC0000" stroke-width="60" stroke-miterlimit="10" pointer-events="stroke"/><path d="M 570 1000 L 710 1000" fill="none" stroke="#000066" stroke-width="60" stroke-miterlimit="10" pointer-events="stroke"/><path d="M 600 970 L 600 1110" fill="none" stroke="#000066" stroke-width="60" stroke-miterlimit="10" pointer-events="stroke"/><path d="M 650 1000 L 790 1000" fill="none" stroke="#000066" stroke-width="60" stroke-miterlimit="10" pointer-events="stroke"/><path d="M 730 1000 L 870 1000" fill="none" stroke="#000066" stroke-width="60" stroke-miterlimit="10" pointer-events="stroke"/><path d="M 570 1560 L 710 1560" fill="none" stroke="#66DD99" stroke-width="60" stroke-miterlimit="10" pointer-events="stroke"/><path d="M 680 1450 L 680 1590" fill="none" stroke="#66DD99" stroke-width="60" stroke-miterlimit="10" pointer-events="stroke"/><path d="M 650 1480 L 790 1480" fill="none" stroke="#66DD99" stroke-width="60" stroke-miterlimit="10" pointer-events="stroke"/><path d="M 680 1370 L 680 1510" fill="none" stroke="#66DD99" stroke-width="60" stroke-miterlimit="10" pointer-events="stroke"/><path d="M 680 570 L 680 710" fill="none" stroke="#CC0000" stroke-width="60" stroke-miterlimit="10" pointer-events="stroke"/><path d="M 650 680 L 790 680" fill="none" stroke="#CC0000" stroke-width="60" stroke-miterlimit="10" pointer-events="stroke"/><path d="M 730 680 L 870 680" fill="none" stroke="#CC0000" stroke-width="60" stroke-miterlimit="10" pointer-events="stroke"/><path d="M 840 650 L 840 790" fill="none" stroke="#CC0000" stroke-width="60" stroke-miterlimit="10" pointer-events="stroke"/><path d="M 650 1080 L 790 1080" fill="none" stroke="#66DD99" stroke-width="60" stroke-miterlimit="10" pointer-events="stroke"/><path d="M 760 1050 L 760 1190" fill="none" stroke="#66DD99" stroke-width="60" stroke-miterlimit="10" pointer-events="stroke"/><path d="M 730 1160 L 870 1160" fill="none" stroke="#66DD99" stroke-width="60" stroke-miterlimit="10" pointer-events="stroke"/><path d="M 760 1130 L 760 1270" fill="none" stroke="#66DD99" stroke-width="60" stroke-miterlimit="10" pointer-events="stroke"/><path d="M 680 1210 L 680 1350" fill="none" stroke="#7F00FF" stroke-width="60" stroke-miterlimit="10" pointer-events="stroke"/><path d="M 650 1320 L 790 1320" fill="none" stroke="#7F00FF" stroke-width="60" stroke-miterlimit="10" pointer-events="stroke"/><path d="M 760 1290 L 760 1430" fill="none" stroke="#7F00FF" stroke-width="60" stroke-miterlimit="10" pointer-events="stroke"/><path d="M 730 1400 L 870 1400" fill="none" stroke="#7F00FF" stroke-width="60" stroke-miterlimit="10" pointer-events="stroke"/><path d="M 730 200 L 870 200" fill="none" stroke="#7F00FF" stroke-width="60" stroke-miterlimit="10" pointer-events="stroke"/><path d="M 840 170 L 840 310" fill="none" stroke="#7F00FF" stroke-width="60" stroke-miterlimit="10" pointer-events="stroke"/><path d="M 810 280 L 950 280" fill="none" stroke="#7F00FF" stroke-width="60" stroke-miterlimit="10" pointer-events="stroke"/><path d="M 920 250 L 920 390" fill="none" stroke="#7F00FF" stroke-width="60" stroke-miterlimit="10" pointer-events="stroke"/><path d="M 730 440 L 870 440" fill="none" stroke="#66DD99" stroke-width="60" stroke-miterlimit="10" pointer-events="stroke"/><path d="M 840 330 L 840 470" fill="none" stroke="#66DD99" stroke-width="60" stroke-miterlimit="10" pointer-events="stroke"/><path d="M 840 410 L 840 550" fill="none" stroke="#66DD99" stroke-width="60" stroke-miterlimit="10" pointer-events="stroke"/><path d="M 810 520 L 950 520" fill="none" stroke="#66DD99" stroke-width="60" stroke-miterlimit="10" pointer-events="stroke"/><path d="M 730 600 L 870 600" fill="none" stroke="#000066" stroke-width="60" stroke-miterlimit="10" pointer-events="stroke"/><path d="M 810 600 L 950 600" fill="none" stroke="#000066" stroke-width="60" stroke-miterlimit="10" pointer-events="stroke"/><path d="M 890 600 L 1030 600" fill="none" stroke="#000066" stroke-width="60" stroke-miterlimit="10" pointer-events="stroke"/><path d="M 1000 490 L 1000 630" fill="none" stroke="#000066" stroke-width="60" stroke-miterlimit="10" pointer-events="stroke"/><path d="M 760 810 L 760 950" fill="none" stroke="#CC0000" stroke-width="60" stroke-miterlimit="10" pointer-events="stroke"/><path d="M 730 920 L 870 920" fill="none" stroke="#CC0000" stroke-width="60" stroke-miterlimit="10" pointer-events="stroke"/><path d="M 810 920 L 950 920" fill="none" stroke="#CC0000" stroke-width="60" stroke-miterlimit="10" pointer-events="stroke"/><path d="M 920 890 L 920 1030" fill="none" stroke="#CC0000" stroke-width="60" stroke-miterlimit="10" pointer-events="stroke"/><path d="M 730 1560 L 870 1560" fill="none" stroke="#4D4D4D" stroke-width="60" stroke-miterlimit="10" pointer-events="stroke"/><path d="M 810 1560 L 950 1560" fill="none" stroke="#4D4D4D" stroke-width="60" stroke-miterlimit="10" pointer-events="stroke"/><path d="M 890 1560 L 1030 1560" fill="none" stroke="#4D4D4D" stroke-width="60" stroke-miterlimit="10" pointer-events="stroke"/><path d="M 970 1560 L 1110 1560" fill="none" stroke="#4D4D4D" stroke-width="60" stroke-miterlimit="10" pointer-events="stroke"/><path d="M 810 120 L 950 120" fill="none" stroke="#66DD99" stroke-width="60" stroke-miterlimit="10" pointer-events="stroke"/><path d="M 920 10 L 920 150" fill="none" stroke="#66DD99" stroke-width="60" stroke-miterlimit="10" pointer-events="stroke"/><path d="M 920 90 L 920 230" fill="none" stroke="#66DD99" stroke-width="60" stroke-miterlimit="10" pointer-events="stroke"/><path d="M 890 40 L 1030 40" fill="none" stroke="#66DD99" stroke-width="60" stroke-miterlimit="10" pointer-events="stroke"/><path d="M 810 840 L 950 840" fill="none" stroke="#CC0000" stroke-width="60" stroke-miterlimit="10" pointer-events="stroke"/><path d="M 920 730 L 920 870" fill="none" stroke="#CC0000" stroke-width="60" stroke-miterlimit="10" pointer-events="stroke"/><path d="M 920 650 L 920 790" fill="none" stroke="#CC0000" stroke-width="60" stroke-miterlimit="10" pointer-events="stroke"/><path d="M 890 680 L 1030 680" fill="none" stroke="#CC0000" stroke-width="60" stroke-miterlimit="10" pointer-events="stroke"/><path d="M 810 1080 L 950 1080" fill="none" stroke="#000066" stroke-width="60" stroke-miterlimit="10" pointer-events="stroke"/><path d="M 890 1080 L 1030 1080" fill="none" stroke="#000066" stroke-width="60" stroke-miterlimit="10" pointer-events="stroke"/><path d="M 970 1080 L 1110 1080" fill="none" stroke="#000066" stroke-width="60" stroke-miterlimit="10" pointer-events="stroke"/><path d="M 1080 1050 L 1080 1190" fill="none" stroke="#000066" stroke-width="60" stroke-miterlimit="10" pointer-events="stroke"/><path d="M 810 1240 L 950 1240" fill="none" stroke="#7F00FF" stroke-width="60" stroke-miterlimit="10" pointer-events="stroke"/><path d="M 840 1210 L 840 1350" fill="none" stroke="#7F00FF" stroke-width="60" stroke-miterlimit="10" pointer-events="stroke"/><path d="M 920 1130 L 920 1270" fill="none" stroke="#7F00FF" stroke-width="60" stroke-miterlimit="10" pointer-events="stroke"/><path d="M 890 1160 L 1030 1160" fill="none" stroke="#7F00FF" stroke-width="60" stroke-miterlimit="10" pointer-events="stroke"/><path d="M 810 1480 L 950 1480" fill="none" stroke="#CC0000" stroke-width="60" stroke-miterlimit="10" pointer-events="stroke"/><path d="M 920 1370 L 920 1510" fill="none" stroke="#CC0000" stroke-width="60" stroke-miterlimit="10" pointer-events="stroke"/><path d="M 920 1290 L 920 1430" fill="none" stroke="#CC0000" stroke-width="60" stroke-miterlimit="10" pointer-events="stroke"/><path d="M 890 1320 L 1030 1320" fill="none" stroke="#CC0000" stroke-width="60" stroke-miterlimit="10" pointer-events="stroke"/><path d="M 890 440 L 1030 440" fill="none" stroke="#FF9933" stroke-width="60" stroke-miterlimit="10" pointer-events="stroke"/><path d="M 970 440 L 1110 440" fill="none" stroke="#FF9933" stroke-width="60" stroke-miterlimit="10" pointer-events="stroke"/><path d="M 1050 440 L 1190 440" fill="none" stroke="#FF9933" stroke-width="60" stroke-miterlimit="10" pointer-events="stroke"/><path d="M 1080 330 L 1080 470" fill="none" stroke="#FF9933" stroke-width="60" stroke-miterlimit="10" pointer-events="stroke"/><path d="M 970 120 L 1110 120" fill="none" stroke="#000066" stroke-width="60" stroke-miterlimit="10" pointer-events="stroke"/><path d="M 1000 90 L 1000 230" fill="none" stroke="#000066" stroke-width="60" stroke-miterlimit="10" pointer-events="stroke"/><path d="M 1000 170 L 1000 310" fill="none" stroke="#000066" stroke-width="60" stroke-miterlimit="10" pointer-events="stroke"/><path d="M 1000 250 L 1000 390" fill="none" stroke="#000066" stroke-width="60" stroke-miterlimit="10" pointer-events="stroke"/><path d="M 1000 730 L 1000 870" fill="none" stroke="#000066" stroke-width="60" stroke-miterlimit="10" pointer-events="stroke"/><path d="M 1000 810 L 1000 950" fill="none" stroke="#000066" stroke-width="60" stroke-miterlimit="10" pointer-events="stroke"/><path d="M 1000 890 L 1000 1030" fill="none" stroke="#000066" stroke-width="60" stroke-miterlimit="10" pointer-events="stroke"/><path d="M 970 1000 L 1110 1000" fill="none" stroke="#000066" stroke-width="60" stroke-miterlimit="10" pointer-events="stroke"/><path d="M 970 1240 L 1110 1240" fill="none" stroke="#663300" stroke-width="60" stroke-miterlimit="10" pointer-events="stroke"/><path d="M 1050 1240 L 1190 1240" fill="none" stroke="#663300" stroke-width="60" stroke-miterlimit="10" pointer-events="stroke"/><path d="M 1080 1210 L 1080 1350" fill="none" stroke="#663300" stroke-width="60" stroke-miterlimit="10" pointer-events="stroke"/><path d="M 1080 1290 L 1080 1430" fill="none" stroke="#663300" stroke-width="60" stroke-miterlimit="10" pointer-events="stroke"/><path d="M 1000 1370 L 1000 1510" fill="none" stroke="#006600" stroke-width="60" stroke-miterlimit="10" pointer-events="stroke"/><path d="M 970 1480 L 1110 1480" fill="none" stroke="#006600" stroke-width="60" stroke-miterlimit="10" pointer-events="stroke"/><path d="M 1050 1480 L 1190 1480" fill="none" stroke="#006600" stroke-width="60" stroke-miterlimit="10" pointer-events="stroke"/><path d="M 1160 1370 L 1160 1510" fill="none" stroke="#006600" stroke-width="60" stroke-miterlimit="10" pointer-events="stroke"/><path d="M 1050 40 L 1190 40" fill="none" stroke="#CC0000" stroke-width="60" stroke-miterlimit="10" pointer-events="stroke"/><path d="M 1160 10 L 1160 150" fill="none" stroke="#CC0000" stroke-width="60" stroke-miterlimit="10" pointer-events="stroke"/><path d="M 1160 90 L 1160 230" fill="none" stroke="#CC0000" stroke-width="60" stroke-miterlimit="10" pointer-events="stroke"/><path d="M 1130 200 L 1270 200" fill="none" stroke="#CC0000" stroke-width="60" stroke-miterlimit="10" pointer-events="stroke"/><path d="M 1080 170 L 1080 310" fill="none" stroke="#7F00FF" stroke-width="60" stroke-miterlimit="10" pointer-events="stroke"/><path d="M 1050 280 L 1190 280" fill="none" stroke="#7F00FF" stroke-width="60" stroke-miterlimit="10" pointer-events="stroke"/><path d="M 1160 250 L 1160 390" fill="none" stroke="#7F00FF" stroke-width="60" stroke-miterlimit="10" pointer-events="stroke"/><path d="M 1130 360 L 1270 360" fill="none" stroke="#7F00FF" stroke-width="60" stroke-miterlimit="10" pointer-events="stroke"/><path d="M 1050 520 L 1190 520" fill="none" stroke="#000066" stroke-width="60" stroke-miterlimit="10" pointer-events="stroke"/><path d="M 1080 490 L 1080 630" fill="none" stroke="#000066" stroke-width="60" stroke-miterlimit="10" pointer-events="stroke"/><path d="M 1080 570 L 1080 710" fill="none" stroke="#000066" stroke-width="60" stroke-miterlimit="10" pointer-events="stroke"/><path d="M 1080 650 L 1080 790" fill="none" stroke="#000066" stroke-width="60" stroke-miterlimit="10" pointer-events="stroke"/><path d="M 1050 840 L 1190 840" fill="none" stroke="#66DD99" stroke-width="60" stroke-miterlimit="10" pointer-events="stroke"/><path d="M 1080 810 L 1080 950" fill="none" stroke="#66DD99" stroke-width="60" stroke-miterlimit="10" pointer-events="stroke"/><path d="M 1130 840 L 1270 840" fill="none" stroke="#66DD99" stroke-width="60" stroke-miterlimit="10" pointer-events="stroke"/><path d="M 1160 730 L 1160 870" fill="none" stroke="#66DD99" stroke-width="60" stroke-miterlimit="10" pointer-events="stroke"/><path d="M 1160 570 L 1160 710" fill="none" stroke="#7F00FF" stroke-width="60" stroke-miterlimit="10" pointer-events="stroke"/><path d="M 1130 680 L 1270 680" fill="none" stroke="#7F00FF" stroke-width="60" stroke-miterlimit="10" pointer-events="stroke"/><path d="M 1240 650 L 1240 790" fill="none" stroke="#7F00FF" stroke-width="60" stroke-miterlimit="10" pointer-events="stroke"/><path d="M 1210 760 L 1350 760" fill="none" stroke="#7F00FF" stroke-width="60" stroke-miterlimit="10" pointer-events="stroke"/><path d="M 1160 890 L 1160 1030" fill="none" stroke="#FF9933" stroke-width="60" stroke-miterlimit="10" pointer-events="stroke"/><path d="M 1160 970 L 1160 1110" fill="none" stroke="#FF9933" stroke-width="60" stroke-miterlimit="10" pointer-events="stroke"/><path d="M 1130 1080 L 1270 1080" fill="none" stroke="#FF9933" stroke-width="60" stroke-miterlimit="10" pointer-events="stroke"/><path d="M 1160 1050 L 1160 1190" fill="none" stroke="#FF9933" stroke-width="60" stroke-miterlimit="10" pointer-events="stroke"/><path d="M 1130 1320 L 1270 1320" fill="none" stroke="#CC0000" stroke-width="60" stroke-miterlimit="10" pointer-events="stroke"/><path d="M 1240 1290 L 1240 1430" fill="none" stroke="#CC0000" stroke-width="60" stroke-miterlimit="10" pointer-events="stroke"/><path d="M 1240 1370 L 1240 1510" fill="none" stroke="#CC0000" stroke-width="60" stroke-miterlimit="10" pointer-events="stroke"/><path d="M 1210 1480 L 1350 1480" fill="none" stroke="#CC0000" stroke-width="60" stroke-miterlimit="10" pointer-events="stroke"/><path d="M 1130 1560 L 1270 1560" fill="none" stroke="#4D4D4D" stroke-width="60" stroke-miterlimit="10" pointer-events="stroke"/><path d="M 1210 1560 L 1350 1560" fill="none" stroke="#4D4D4D" stroke-width="60" stroke-miterlimit="10" pointer-events="stroke"/><path d="M 1290 1560 L 1430 1560" fill="none" stroke="#4D4D4D" stroke-width="60" stroke-miterlimit="10" pointer-events="stroke"/><path d="M 1370 1560 L 1510 1560" fill="none" stroke="#4D4D4D" stroke-width="60" stroke-miterlimit="10" pointer-events="stroke"/><path d="M 1210 40 L 1350 40" fill="none" stroke="#006600" stroke-width="60" stroke-miterlimit="10" pointer-events="stroke"/><path d="M 1240 10 L 1240 150" fill="none" stroke="#006600" stroke-width="60" stroke-miterlimit="10" pointer-events="stroke"/><path d="M 1290 40 L 1430 40" fill="none" stroke="#006600" stroke-width="60" stroke-miterlimit="10" pointer-events="stroke"/><path d="M 1400 10 L 1400 150" fill="none" stroke="#006600" stroke-width="60" stroke-miterlimit="10" pointer-events="stroke"/><path d="M 1210 280 L 1350 280" fill="none" stroke="#663300" stroke-width="60" stroke-miterlimit="10" pointer-events="stroke"/><path d="M 1290 280 L 1430 280" fill="none" stroke="#663300" stroke-width="60" stroke-miterlimit="10" pointer-events="stroke"/><path d="M 1320 170 L 1320 310" fill="none" stroke="#663300" stroke-width="60" stroke-miterlimit="10" pointer-events="stroke"/><path d="M 1320 90 L 1320 230" fill="none" stroke="#663300" stroke-width="60" stroke-miterlimit="10" pointer-events="stroke"/><path d="M 1240 410 L 1240 550" fill="none" stroke="#663300" stroke-width="60" stroke-miterlimit="10" pointer-events="stroke"/><path d="M 1210 520 L 1350 520" fill="none" stroke="#663300" stroke-width="60" stroke-miterlimit="10" pointer-events="stroke"/><path d="M 1240 490 L 1240 630" fill="none" stroke="#663300" stroke-width="60" stroke-miterlimit="10" pointer-events="stroke"/><path d="M 1290 520 L 1430 520" fill="none" stroke="#663300" stroke-width="60" stroke-miterlimit="10" pointer-events="stroke"/><path d="M 1210 920 L 1350 920" fill="none" stroke="#7F00FF" stroke-width="60" stroke-miterlimit="10" pointer-events="stroke"/><path d="M 1320 810 L 1320 950" fill="none" stroke="#7F00FF" stroke-width="60" stroke-miterlimit="10" pointer-events="stroke"/><path d="M 1290 840 L 1430 840" fill="none" stroke="#7F00FF" stroke-width="60" stroke-miterlimit="10" pointer-events="stroke"/><path d="M 1400 730 L 1400 870" fill="none" stroke="#7F00FF" stroke-width="60" stroke-miterlimit="10" pointer-events="stroke"/><path d="M 1210 1000 L 1350 1000" fill="none" stroke="#000066" stroke-width="60" stroke-miterlimit="10" pointer-events="stroke"/><path d="M 1290 1000 L 1430 1000" fill="none" stroke="#000066" stroke-width="60" stroke-miterlimit="10" pointer-events="stroke"/><path d="M 1370 1000 L 1510 1000" fill="none" stroke="#000066" stroke-width="60" stroke-miterlimit="10" pointer-events="stroke"/><path d="M 1480 970 L 1480 1110" fill="none" stroke="#000066" stroke-width="60" stroke-miterlimit="10" pointer-events="stroke"/><path d="M 1210 1160 L 1350 1160" fill="none" stroke="#7F00FF" stroke-width="60" stroke-miterlimit="10" pointer-events="stroke"/><path d="M 1240 1130 L 1240 1270" fill="none" stroke="#7F00FF" stroke-width="60" stroke-miterlimit="10" pointer-events="stroke"/><path d="M 1320 1050 L 1320 1190" fill="none" stroke="#7F00FF" stroke-width="60" stroke-miterlimit="10" pointer-events="stroke"/><path d="M 1290 1080 L 1430 1080" fill="none" stroke="#7F00FF" stroke-width="60" stroke-miterlimit="10" pointer-events="stroke"/><path d="M 1290 360 L 1430 360" fill="none" stroke="#CC0000" stroke-width="60" stroke-miterlimit="10" pointer-events="stroke"/><path d="M 1320 330 L 1320 470" fill="none" stroke="#CC0000" stroke-width="60" stroke-miterlimit="10" pointer-events="stroke"/><path d="M 1370 360 L 1510 360" fill="none" stroke="#CC0000" stroke-width="60" stroke-miterlimit="10" pointer-events="stroke"/><path d="M 1480 250 L 1480 390" fill="none" stroke="#CC0000" stroke-width="60" stroke-miterlimit="10" pointer-events="stroke"/><path d="M 1320 570 L 1320 710" fill="none" stroke="#CC0000" stroke-width="60" stroke-miterlimit="10" pointer-events="stroke"/><path d="M 1290 680 L 1430 680" fill="none" stroke="#CC0000" stroke-width="60" stroke-miterlimit="10" pointer-events="stroke"/><path d="M 1370 680 L 1510 680" fill="none" stroke="#CC0000" stroke-width="60" stroke-miterlimit="10" pointer-events="stroke"/><path d="M 1480 650 L 1480 790" fill="none" stroke="#CC0000" stroke-width="60" stroke-miterlimit="10" pointer-events="stroke"/><path d="M 1320 1210 L 1320 1350" fill="none" stroke="#663300" stroke-width="60" stroke-miterlimit="10" pointer-events="stroke"/><path d="M 1290 1320 L 1430 1320" fill="none" stroke="#663300" stroke-width="60" stroke-miterlimit="10" pointer-events="stroke"/><path d="M 1320 1290 L 1320 1430" fill="none" stroke="#663300" stroke-width="60" stroke-miterlimit="10" pointer-events="stroke"/><path d="M 1370 1320 L 1510 1320" fill="none" stroke="#663300" stroke-width="60" stroke-miterlimit="10" pointer-events="stroke"/><path d="M 1370 200 L 1510 200" fill="none" stroke="#CC0000" stroke-width="60" stroke-miterlimit="10" pointer-events="stroke"/><path d="M 1480 90 L 1480 230" fill="none" stroke="#CC0000" stroke-width="60" stroke-miterlimit="10" pointer-events="stroke"/><path d="M 1480 10 L 1480 150" fill="none" stroke="#CC0000" stroke-width="60" stroke-miterlimit="10" pointer-events="stroke"/><path d="M 1450 40 L 1590 40" fill="none" stroke="#CC0000" stroke-width="60" stroke-miterlimit="10" pointer-events="stroke"/><path d="M 1370 440 L 1510 440" fill="none" stroke="#006600" stroke-width="60" stroke-miterlimit="10" pointer-events="stroke"/><path d="M 1480 410 L 1480 550" fill="none" stroke="#006600" stroke-width="60" stroke-miterlimit="10" pointer-events="stroke"/><path d="M 1480 490 L 1480 630" fill="none" stroke="#006600" stroke-width="60" stroke-miterlimit="10" pointer-events="stroke"/><path d="M 1370 600 L 1510 600" fill="none" stroke="#006600" stroke-width="60" stroke-miterlimit="10" pointer-events="stroke"/><path d="M 1370 920 L 1510 920" fill="none" stroke="#66DD99" stroke-width="60" stroke-miterlimit="10" pointer-events="stroke"/><path d="M 1450 920 L 1590 920" fill="none" stroke="#66DD99" stroke-width="60" stroke-miterlimit="10" pointer-events="stroke"/><path d="M 1480 810 L 1480 950" fill="none" stroke="#66DD99" stroke-width="60" stroke-miterlimit="10" pointer-events="stroke"/><path d="M 1560 890 L 1560 1030" fill="none" stroke="#66DD99" stroke-width="60" stroke-miterlimit="10" pointer-events="stroke"/><path d="M 1370 1160 L 1510 1160" fill="none" stroke="#CC0000" stroke-width="60" stroke-miterlimit="10" pointer-events="stroke"/><path d="M 1400 1130 L 1400 1270" fill="none" stroke="#CC0000" stroke-width="60" stroke-miterlimit="10" pointer-events="stroke"/><path d="M 1450 1160 L 1590 1160" fill="none" stroke="#CC0000" stroke-width="60" stroke-miterlimit="10" pointer-events="stroke"/><path d="M 1560 1050 L 1560 1190" fill="none" stroke="#CC0000" stroke-width="60" stroke-miterlimit="10" pointer-events="stroke"/><path d="M 1400 1370 L 1400 1510" fill="none" stroke="#CC0000" stroke-width="60" stroke-miterlimit="10" pointer-events="stroke"/><path d="M 1370 1480 L 1510 1480" fill="none" stroke="#CC0000" stroke-width="60" stroke-miterlimit="10" pointer-events="stroke"/><path d="M 1450 1480 L 1590 1480" fill="none" stroke="#CC0000" stroke-width="60" stroke-miterlimit="10" pointer-events="stroke"/><path d="M 1560 1450 L 1560 1590" fill="none" stroke="#CC0000" stroke-width="60" stroke-miterlimit="10" pointer-events="stroke"/><path d="M 1450 1240 L 1590 1240" fill="none" stroke="#006600" stroke-width="60" stroke-miterlimit="10" pointer-events="stroke"/><path d="M 1560 1210 L 1560 1350" fill="none" stroke="#006600" stroke-width="60" stroke-miterlimit="10" pointer-events="stroke"/><path d="M 1560 1290 L 1560 1430" fill="none" stroke="#006600" stroke-width="60" stroke-miterlimit="10" pointer-events="stroke"/><path d="M 1450 1400 L 1590 1400" fill="none" stroke="#006600" stroke-width="60" stroke-miterlimit="10" pointer-events="stroke"/><path d="M 1560 90 L 1560 230" fill="none" stroke="#4D4D4D" stroke-width="60" stroke-miterlimit="10" pointer-events="stroke"/><path d="M 1560 170 L 1560 310" fill="none" stroke="#4D4D4D" stroke-width="60" stroke-miterlimit="10" pointer-events="stroke"/><path d="M 1560 250 L 1560 390" fill="none" stroke="#4D4D4D" stroke-width="60" stroke-miterlimit="10" pointer-events="stroke"/><path d="M 1560 330 L 1560 470" fill="none" stroke="#4D4D4D" stroke-width="60" stroke-miterlimit="10" pointer-events="stroke"/><path d="M 1560 490 L 1560 630" fill="none" stroke="#4D4D4D" stroke-width="60" stroke-miterlimit="10" pointer-events="stroke"/><path d="M 1560 570 L 1560 710" fill="none" stroke="#4D4D4D" stroke-width="60" stroke-miterlimit="10" pointer-events="stroke"/><path d="M 1560 650 L 1560 790" fill="none" stroke="#4D4D4D" stroke-width="60" stroke-miterlimit="10" pointer-events="stroke"/><path d="M 1560 730 L 1560 870" fill="none" stroke="#4D4D4D" stroke-width="60" stroke-miterlimit="10" pointer-events="stroke"/></g></svg>
